<?xml version="1.0" standalone="no"?>
<!DOCTYPE svg PUBLIC "-//W3C//DTD SVG 20010904//EN"
 "http://www.w3.org/TR/2001/REC-SVG-20010904/DTD/svg10.dtd">
<svg version="1.0" xmlns="http://www.w3.org/2000/svg"
 width="16.000000pt" height="16.000000pt" viewBox="0 0 16.000000 16.000000"
 preserveAspectRatio="xMidYMid meet">
<metadata>
Created by potrace 1.11, written by Peter Selinger 2001-2013
</metadata>
<g transform="translate(0.000000,16.000000) scale(0.001429,-0.001429)"
fill="#000000" stroke="none">
<path d="M6977 9494 c-1 -1 -47 -5 -102 -8 -159 -10 -220 -16 -305 -31 -14 -2
-41 -6 -60 -9 -36 -6 -117 -21 -160 -31 -14 -3 -34 -8 -45 -10 -53 -10 -81
-16 -95 -21 -8 -3 -26 -8 -40 -10 -14 -3 -36 -9 -50 -13 -14 -5 -52 -17 -85
-27 -97 -28 -291 -96 -380 -134 -16 -7 -46 -19 -65 -28 -106 -44 -310 -151
-451 -237 -51 -30 -95 -55 -100 -55 -4 0 -9 -4 -11 -8 -1 -4 -47 -38 -101 -76
-563 -390 -1048 -978 -1322 -1601 -10 -22 -26 -58 -36 -80 -28 -60 -109 -284
-109 -300 0 -16 2 -16 -133 19 -55 14 -115 28 -136 31 -20 3 -48 8 -61 10
-116 23 -210 30 -425 30 -188 0 -278 -5 -355 -20 -14 -3 -43 -7 -65 -10 -194
-24 -512 -130 -719 -239 -47 -25 -86 -42 -86 -38 0 4 -4 2 -8 -3 -9 -13 -171
-115 -182 -115 -5 0 -10 -3 -12 -8 -1 -4 -28 -25 -58 -47 -182 -130 -384 -329
-529 -520 -34 -44 -64 -84 -69 -90 -4 -5 -36 -55 -70 -110 -34 -55 -65 -105
-69 -110 -5 -6 -9 -17 -11 -25 -2 -8 -9 -22 -16 -30 -26 -30 -127 -269 -170
-400 -65 -197 -113 -425 -121 -567 -2 -34 -6 -66 -8 -70 -7 -11 -1 -416 7
-478 9 -76 25 -183 32 -220 8 -35 23 -109 28 -134 8 -38 65 -220 87 -281 157
-420 424 -804 749 -1080 36 -30 67 -57 70 -61 11 -13 210 -150 270 -186 102
-61 207 -116 305 -157 50 -21 99 -42 110 -47 23 -10 173 -59 195 -64 8 -2 49
-12 90 -23 70 -19 173 -40 230 -48 14 -1 45 -5 70 -9 164 -22 501 -23 618 0 9
1 40 6 67 9 28 4 82 14 120 22 39 8 81 17 95 20 125 25 370 113 520 188 130
65 292 161 298 178 2 4 9 8 15 8 7 0 23 9 37 20 14 11 43 34 65 51 125 95 237
198 354 323 54 58 54 58 77 39 184 -146 403 -303 424 -303 5 0 10 -3 10 -8 0
-4 21 -19 48 -32 26 -14 49 -27 52 -30 26 -26 356 -189 485 -240 11 -4 36 -15
55 -23 93 -40 422 -142 525 -162 38 -8 60 -13 60 -15 0 -2 20 -5 85 -16 25 -4
52 -9 60 -11 8 -1 29 -5 45 -7 17 -3 44 -7 60 -10 17 -2 51 -7 78 -10 26 -3
66 -8 90 -11 128 -17 493 -23 647 -12 160 12 215 17 230 22 8 2 42 7 75 11 47
5 331 60 405 79 89 22 347 105 405 130 17 7 62 25 100 40 206 82 524 256 735
402 38 26 184 136 190 142 3 4 21 18 40 32 73 55 211 182 319 293 47 49 93 96
102 105 15 15 74 83 129 147 88 104 280 374 280 394 0 5 4 10 8 10 5 0 16 15
25 33 10 17 27 48 39 67 83 137 206 392 278 575 56 145 75 199 72 208 -1 4 4
20 12 35 7 15 34 110 59 212 47 194 57 240 72 345 2 17 7 41 9 55 3 13 8 54
12 90 3 36 8 74 10 85 16 83 22 477 10 650 -13 170 -20 240 -42 375 -3 19 -7
44 -9 56 -3 23 -21 110 -40 194 -2 12 -13 54 -24 94 -11 40 -22 83 -25 97 -4
22 -20 72 -33 109 -3 8 -7 20 -8 25 -11 45 -124 345 -145 383 -34 64 -68 142
-62 142 4 0 3 4 -3 8 -5 4 -23 34 -40 67 -16 33 -32 62 -35 65 -3 3 -15 25
-28 50 -12 25 -43 77 -68 115 -24 39 -48 79 -53 90 -5 12 -16 27 -25 34 -9 7
-16 18 -16 23 0 11 -80 122 -92 126 -4 2 -8 8 -8 13 0 25 -234 300 -377 444
-223 224 -532 467 -753 593 -19 11 -69 39 -110 62 -170 98 -419 209 -620 276
-58 20 -112 38 -120 41 -8 3 -19 7 -25 8 -5 2 -30 8 -55 16 -25 7 -49 13 -55
15 -5 1 -30 7 -55 14 -61 16 -85 22 -200 45 -91 18 -201 35 -255 40 -22 2 -58
6 -80 9 -113 14 -197 19 -373 20 -105 2 -193 2 -195 0z m438 -718 c28 -3 73
-8 100 -11 49 -5 77 -9 145 -21 19 -4 44 -8 55 -10 11 -1 29 -5 40 -8 11 -2
54 -12 95 -21 41 -8 90 -20 108 -26 18 -6 41 -12 50 -14 9 -2 18 -4 20 -5 1
-2 7 -4 12 -5 6 -1 12 -4 15 -5 3 -1 8 -3 13 -4 102 -27 315 -112 455 -182
323 -162 569 -337 822 -589 83 -82 170 -172 193 -200 77 -93 172 -218 204
-269 18 -28 41 -60 50 -70 10 -11 18 -23 18 -27 0 -4 21 -43 48 -86 138 -227
240 -470 336 -796 10 -32 19 -68 22 -80 2 -12 6 -31 9 -42 24 -112 40 -202 50
-281 3 -23 8 -52 10 -65 23 -116 23 -603 1 -739 -3 -14 -7 -47 -10 -75 -6 -48
-8 -62 -21 -130 -3 -16 -7 -39 -9 -50 -2 -11 -8 -40 -14 -65 -6 -24 -9 -46 -7
-49 3 -2 1 -9 -4 -15 -5 -6 -14 -38 -21 -71 -7 -33 -15 -64 -18 -70 -4 -5 -7
-14 -8 -20 -12 -79 -171 -479 -224 -565 -6 -8 -18 -31 -28 -50 -98 -185 -273
-439 -403 -585 -90 -101 -267 -274 -359 -352 -112 -94 -281 -216 -288 -208 -3
3 -6 110 -6 237 l-1 233 44 40 c64 57 281 274 316 315 95 110 201 260 302 425
72 116 197 401 247 560 26 83 71 258 80 310 2 17 7 48 11 70 3 22 8 51 11 65
6 28 11 77 20 165 7 78 12 417 6 429 -3 5 -6 34 -7 65 -4 92 -30 258 -61 396
-3 17 -8 37 -9 45 -1 8 -5 22 -8 30 -3 8 -15 49 -27 90 -28 98 -93 278 -120
329 -11 22 -20 45 -20 52 0 6 -9 24 -21 40 -11 16 -18 29 -15 29 7 0 -125 235
-135 238 -5 2 -9 9 -9 15 0 17 -110 174 -185 264 -5 7 -21 26 -35 43 -68 83
-215 236 -276 287 -22 18 -53 45 -71 60 -17 15 -46 39 -64 53 -18 14 -38 30
-44 35 -6 6 -18 15 -27 20 -8 6 -49 34 -91 63 -42 28 -80 52 -86 52 -5 0 -11
4 -13 8 -8 21 -379 212 -411 212 -7 0 -17 4 -22 9 -35 31 -409 133 -572 156
-21 3 -47 7 -58 10 -96 19 -497 27 -625 11 -36 -4 -81 -9 -100 -11 -19 -2 -48
-6 -65 -9 -16 -3 -45 -8 -62 -11 -43 -7 -152 -32 -238 -55 -22 -6 -48 -12 -57
-15 -9 -2 -25 -8 -35 -13 -10 -6 -22 -11 -28 -11 -24 -3 -108 -32 -195 -69
-76 -31 -305 -146 -308 -154 -2 -4 -8 -8 -13 -8 -12 0 -113 -62 -117 -72 -2
-4 -8 -8 -13 -8 -11 0 -152 -101 -157 -112 -2 -5 -10 -8 -17 -8 -7 0 -15 -3
-17 -7 -1 -5 -28 -28 -58 -53 -64 -53 -64 -53 -166 -151 -43 -42 -98 -98 -122
-125 -24 -27 -55 -62 -70 -79 -43 -48 -184 -243 -234 -325 -62 -101 -148 -260
-148 -275 0 -6 -5 -16 -12 -23 -6 -6 -17 -26 -24 -44 -7 -18 -35 -92 -63 -165
-28 -72 -53 -142 -56 -155 -18 -79 -53 -199 -57 -201 -4 -1 -21 12 -40 28 -56
51 -190 159 -248 200 -30 21 -58 41 -63 45 -4 3 -1 25 7 48 9 23 15 43 15 45
0 1 4 15 10 30 6 16 11 32 11 36 0 5 7 25 15 45 8 20 15 38 15 41 1 7 62 147
104 238 20 43 36 82 36 87 0 5 4 10 9 12 5 2 23 30 40 63 17 33 42 79 55 101
27 49 183 279 213 314 12 14 54 66 96 115 371 446 891 795 1455 975 69 22 139
43 156 46 17 2 45 9 61 14 17 5 41 11 55 14 14 3 35 7 46 10 12 2 37 7 55 10
19 3 43 7 54 10 58 12 154 23 270 32 50 4 91 8 93 9 5 4 388 -3 437 -9z m-45
-527 c23 -2 210 -27 250 -34 124 -22 351 -86 445 -126 17 -7 32 -13 35 -13 60
-12 366 -173 505 -266 48 -32 120 -84 125 -90 3 -3 25 -21 50 -40 80 -62 246
-222 334 -321 50 -56 186 -235 217 -286 13 -21 27 -39 31 -41 4 -2 8 -8 8 -13
0 -5 12 -28 26 -50 43 -69 130 -240 169 -334 43 -102 106 -285 99 -285 -3 0 0
-9 6 -21 7 -11 14 -33 16 -47 3 -15 14 -63 24 -107 11 -44 22 -96 24 -115 2
-19 7 -42 10 -50 5 -14 10 -65 23 -200 15 -166 3 -497 -24 -640 -3 -19 -7 -42
-8 -50 -31 -224 -144 -556 -271 -795 -72 -137 -185 -313 -236 -369 -10 -11
-18 -23 -18 -26 0 -4 -10 -18 -22 -32 -13 -14 -48 -54 -78 -89 -82 -94 -233
-240 -240 -230 -3 5 -5 566 -4 1248 1 681 -2 1243 -7 1248 -4 6 -78 10 -186
10 l-178 -1 -3 -1399 -2 -1400 -70 -38 -70 -38 0 1894 0 1895 -187 -2 -188 -1
0 -1972 c0 -1084 -3 -1973 -5 -1975 -7 -6 -115 -38 -127 -38 -6 0 -9 877 -9
2511 1 1663 -2 2513 -9 2518 -8 6 -342 8 -365 2 -3 0 -4 -1149 -4 -2551 1
-1403 -1 -2552 -5 -2554 -3 -2 -34 -7 -68 -11 -49 -5 -63 -4 -64 7 0 7 -1
1157 -1 2556 -1 1819 -4 2545 -12 2550 -6 3 -91 7 -188 7 l-177 0 2 -353 c1
-193 -2 -352 -6 -352 -5 0 -5 -5 -2 -11 10 -15 12 -69 3 -69 -4 0 -5 -7 -2
-15 9 -23 10 -385 1 -385 -5 0 -5 -5 -2 -11 11 -16 12 -69 2 -69 -4 0 -5 -5
-2 -11 11 -16 12 -69 2 -69 -4 0 -5 -5 -2 -11 10 -15 12 -69 3 -69 -4 0 -5 -7
-2 -15 9 -23 10 -385 1 -385 -5 0 -5 -5 -2 -11 11 -16 12 -69 2 -69 -4 0 -5
-5 -2 -11 11 -16 12 -69 2 -69 -4 0 -5 -5 -2 -11 10 -15 12 -69 3 -69 -4 0 -5
-7 -2 -15 9 -23 10 -385 1 -385 -5 0 -5 -5 -2 -11 11 -16 12 -69 2 -69 -4 0
-5 -5 -2 -11 11 -16 12 -69 2 -69 -4 0 -5 -5 -2 -11 10 -15 12 -69 3 -69 -4 0
-5 -7 -2 -15 9 -23 10 -385 1 -385 -5 0 -5 -5 -2 -11 10 -15 12 -69 3 -69 -4
0 -5 -7 -1 -15 9 -24 9 -1025 0 -1025 -5 0 -5 -5 -2 -11 10 -15 12 -69 3 -69
-4 0 -5 -7 -2 -15 9 -23 10 -385 1 -385 -5 0 -5 -5 -2 -11 11 -16 12 -69 2
-69 -4 0 -5 -5 -2 -10 6 -9 8 -109 6 -272 l-1 -57 -47 6 c-27 3 -55 7 -63 9
-8 1 -18 3 -22 3 -6 1 -8 64 -7 221 1 140 0 176 -4 195 -2 11 -2 24 1 29 5 9
7 178 2 201 -1 6 -1 15 0 20 1 8 1 71 0 235 0 8 -1 33 -1 55 0 22 0 45 0 50 0
6 0 39 0 75 1 36 0 86 -1 113 -2 26 -1 47 2 47 7 0 3 192 -5 213 -4 9 -3 17 2
17 10 0 9 63 -2 79 -3 6 -3 11 2 11 10 0 8 187 -2 213 -4 9 -3 17 1 17 9 0 9
185 1 225 -3 11 -2 24 1 29 5 9 7 178 2 201 -1 6 -1 15 0 20 1 6 1 57 1 115
-1 58 -1 110 -1 115 0 6 0 39 0 75 1 36 -1 74 -3 85 -2 11 -2 24 1 29 5 9 7
178 2 201 -1 6 -1 15 0 20 1 6 1 57 1 115 -1 58 -1 110 -1 115 0 6 0 39 0 75
1 36 -1 74 -3 85 -2 11 -2 24 1 29 5 9 7 178 2 201 -1 6 -1 15 0 20 1 6 1 57
1 115 -1 58 -1 110 -1 115 0 6 0 39 0 75 1 36 -1 74 -3 85 -2 11 -2 24 1 29 5
9 7 178 2 201 -1 6 -1 15 0 20 4 21 1 211 -4 233 -3 12 -2 22 2 22 9 0 6 189
-3 213 -4 9 -3 17 2 17 10 0 9 63 -2 79 -3 6 -3 11 2 11 10 0 8 187 -2 213 -4
9 -3 17 1 17 8 0 9 29 5 98 -1 15 -17 17 -186 17 -102 0 -186 -2 -186 -5 -1
-3 -2 -1131 -3 -2507 -1 -1376 -4 -2505 -8 -2508 -6 -6 -105 22 -123 36 -7 5
-10 662 -10 1968 0 1735 -2 1962 -15 1965 -8 2 -94 4 -190 4 l-175 -1 2 -1884
1 -1884 -36 22 c-21 12 -49 29 -64 36 -15 8 -31 19 -34 25 -4 6 -7 626 -7
1377 1 751 -1 1373 -3 1381 -3 13 -31 15 -181 13 -98 0 -181 -1 -185 -2 -5 -1
-8 -555 -8 -1233 0 -677 -2 -1233 -4 -1235 -7 -7 -166 156 -166 170 0 7 4 38
10 68 26 153 34 253 34 454 0 169 -6 283 -21 360 -4 22 -7 52 -7 68 -1 15 -5
27 -9 27 -5 0 -6 3 -4 8 4 6 -11 87 -27 152 -3 8 -10 35 -16 60 -6 25 -12 52
-14 60 -1 9 -5 20 -8 25 -3 6 -13 33 -21 60 -42 139 -152 390 -216 490 -14 22
-26 42 -26 45 -1 6 -57 93 -79 125 -70 97 -110 151 -118 153 -4 2 -8 10 -8 17
0 7 -4 15 -9 17 -5 2 -31 30 -59 63 -49 60 -50 62 -42 105 5 25 14 60 19 79 6
18 10 36 9 40 -1 3 1 13 4 21 3 8 20 62 38 120 17 58 37 119 44 135 8 17 20
48 27 70 7 22 19 47 26 56 7 8 13 21 13 27 0 21 114 237 173 329 15 24 27 47
27 52 0 5 4 11 8 13 4 2 28 32 52 68 25 35 52 72 60 81 8 10 20 24 25 31 83
111 269 299 415 418 30 25 57 47 60 50 24 25 250 167 371 233 222 120 582 238
804 263 21 2 51 7 65 10 14 2 61 7 105 10 44 4 81 7 83 9 2 2 314 -3 362 -6z
m-4430 -1481 c41 -5 91 -11 110 -13 31 -3 105 -16 168 -30 101 -22 175 -44
184 -53 7 -7 4 -31 -7 -69 -9 -32 -18 -65 -20 -73 -2 -8 -8 -35 -14 -60 -14
-64 -33 -162 -45 -235 -3 -16 -7 -39 -9 -50 -3 -11 -8 -49 -12 -85 -4 -36 -9
-78 -11 -95 -25 -225 -25 -677 0 -840 3 -16 7 -52 11 -80 16 -146 66 -406 95
-500 5 -16 11 -41 14 -55 3 -14 21 -72 41 -130 19 -58 37 -114 40 -125 2 -11
21 -60 41 -110 40 -99 56 -140 54 -140 0 0 31 -65 70 -143 66 -136 196 -371
210 -382 4 -3 9 -12 12 -20 6 -15 163 -242 192 -277 8 -10 38 -47 66 -82 83
-106 128 -155 273 -303 l139 -140 -29 -32 c-59 -65 -216 -217 -261 -253 -26
-20 -51 -42 -57 -48 -18 -20 -232 -165 -244 -165 -6 0 -11 -3 -11 -7 0 -5 -10
-13 -23 -19 -12 -6 -65 -34 -117 -61 -134 -70 -314 -142 -450 -179 -50 -13
-241 -55 -275 -59 -22 -3 -60 -8 -85 -11 -134 -19 -414 -18 -565 1 -89 11
-191 27 -205 32 -8 4 -25 8 -36 10 -12 2 -55 12 -95 23 -41 12 -81 22 -89 25
-36 9 -166 58 -192 71 -15 8 -28 12 -28 10 0 -3 -62 27 -137 66 -76 38 -148
75 -160 82 -13 6 -23 14 -23 19 0 4 -4 7 -10 7 -13 0 -134 84 -235 163 -85 66
-288 264 -345 336 -19 24 -50 60 -67 80 -18 20 -33 41 -33 48 0 6 -4 13 -9 15
-12 4 -151 219 -151 234 0 7 -4 14 -9 16 -19 7 -172 349 -185 414 -3 10 -12
36 -20 57 -9 20 -14 37 -11 37 4 0 3 6 -2 13 -4 6 -8 17 -9 22 -2 6 -11 46
-23 90 -18 75 -28 122 -37 188 -2 15 -6 38 -8 51 -20 111 -27 441 -13 581 16
156 21 186 42 285 3 14 7 34 9 45 11 55 30 121 37 131 5 6 7 13 4 16 -6 6 93
287 106 298 8 7 31 68 29 76 -1 4 3 10 10 14 6 4 12 14 14 22 1 9 7 22 13 29
6 8 18 30 27 49 34 73 163 267 253 380 86 107 255 276 364 364 95 76 225 166
239 166 6 0 10 4 10 9 0 5 14 14 31 21 17 7 36 18 42 24 12 10 133 73 187 95
14 6 32 15 40 21 36 22 324 119 400 134 14 2 59 11 100 20 105 21 134 26 220
32 41 3 77 7 78 9 8 8 322 2 392 -7z m1181 -450 c24 -17 46 -35 47 -40 2 -4 8
-8 14 -8 6 0 18 -8 27 -18 9 -9 43 -40 76 -67 33 -28 79 -69 103 -92 46 -46
44 -35 26 -149 -17 -111 -23 -466 -11 -611 6 -63 23 -190 31 -229 2 -12 7 -39
10 -60 4 -22 11 -55 16 -74 5 -19 11 -46 13 -60 25 -139 137 -436 241 -635 55
-107 185 -317 229 -370 82 -102 127 -162 127 -173 0 -43 -120 -405 -142 -427
-5 -5 -90 78 -148 145 -12 14 -34 39 -49 56 -43 47 -172 220 -227 304 -27 41
-53 78 -57 81 -5 3 -9 10 -9 15 1 5 -13 32 -30 59 -17 28 -31 52 -31 55 1 3
-7 16 -16 30 -38 55 -191 394 -206 455 -1 6 -5 17 -8 25 -7 19 -40 121 -43
135 -2 6 -17 64 -34 130 -17 66 -33 131 -35 145 -4 24 -10 55 -20 110 -3 14
-7 43 -10 65 -3 22 -7 50 -9 62 -26 131 -27 639 -1 804 12 81 19 126 20 139 1
8 5 31 9 50 4 19 8 42 10 50 2 8 6 33 10 55 11 60 17 75 25 75 4 0 28 -14 52
-32z m489 -474 c44 -56 100 -134 100 -138 0 -3 15 -26 33 -52 90 -132 246
-458 263 -553 3 -13 9 -32 14 -41 5 -9 11 -28 14 -41 3 -13 13 -51 22 -84 21
-79 21 -79 45 -205 30 -159 42 -464 26 -640 -17 -180 -18 -185 -42 -154 -134
172 -272 410 -355 609 -162 391 -232 847 -196 1265 4 47 8 91 8 99 1 13 24 -9
68 -65z m738 -2381 l43 -38 -3 -253 -3 -254 -82 59 c-92 65 -121 89 -236 188
-35 30 -37 34 -26 61 7 16 13 31 14 34 3 9 18 45 33 80 8 19 16 37 16 40 1 3
12 37 25 75 13 39 24 75 25 80 1 6 8 27 15 48 l13 38 61 -60 c34 -32 81 -76
105 -98z m527 -363 l30 -15 1 -222 c1 -123 -2 -223 -7 -223 -5 0 -26 9 -46 20
-21 11 -43 20 -49 20 -6 0 -17 8 -25 18 -12 14 -14 59 -13 232 1 118 3 218 3
222 1 4 18 -3 39 -15 20 -12 51 -29 67 -37z m2615 -190 l0 -220 -65 -30 c-36
-17 -68 -30 -70 -30 -3 0 -4 97 -3 216 l3 217 60 33 c33 18 63 33 68 34 4 0 7
-99 7 -220z m-2128 -11 c26 -6 51 -16 55 -22 4 -7 8 -101 8 -210 l0 -199 -25
5 c-24 5 -32 7 -90 22 l-25 6 0 210 c-1 185 1 209 14 204 9 -4 37 -11 63 -16z
m1613 -175 l-1 -184 36 -1 c19 -1 46 -1 60 0 22 1 23 0 7 -9 -9 -6 -25 -13
-35 -15 -9 -2 -59 -15 -109 -29 -51 -13 -94 -22 -95 -18 -1 4 -2 96 -3 205
l-1 197 41 10 c22 6 46 14 54 18 8 4 21 9 30 9 14 1 16 -20 16 -183z m-1091
71 c17 -2 38 -3 46 -4 15 -1 16 -20 11 -358 l-1 -43 -62 5 c-35 2 -66 4 -70 4
-4 1 -7 9 -7 19 0 9 0 36 -2 60 -1 24 1 45 4 49 3 3 2 16 -3 29 -5 13 -6 24
-2 24 9 0 8 193 -2 208 -7 12 21 21 43 14 7 -3 27 -6 45 -7z m573 -196 c0
-141 -3 -199 -11 -200 -6 0 -37 -2 -68 -5 -44 -4 -58 -2 -59 8 -4 62 -3 372 1
378 5 8 37 14 101 17 l36 1 0 -199z"/>
<path d="M1560 5526 c0 -7 93 -96 370 -355 50 -47 60 -61 45 -62 -11 0 -210
-1 -442 -1 -422 -1 -423 -1 -424 -22 -5 -102 -3 -374 2 -386 6 -13 64 -15 436
-14 235 0 431 -1 436 -3 4 -2 -10 -20 -30 -40 -21 -19 -103 -96 -182 -171 -79
-76 -160 -152 -180 -169 -20 -18 -34 -34 -31 -34 3 -1 126 -3 274 -4 l270 -1
35 30 c19 17 58 54 86 81 29 28 114 109 190 180 75 72 167 159 204 193 36 35
85 82 109 103 23 22 42 42 42 44 0 3 -34 37 -76 77 -42 40 -100 96 -129 123
-28 28 -112 106 -185 175 -73 69 -165 155 -203 193 l-71 67 -273 0 c-150 0
-273 -2 -273 -4z"/>
</g>
</svg>
